<svg width="72" height="24" viewBox="0 0 72 24" fill="none" xmlns="http://www.w3.org/2000/svg">
<g clip-path="url(#clip0_782_283)">
<path d="M39.7105 0.790588C39.174 0.254118 38.4964 0 37.6211 0C36.7458 0 36.0681 0.254118 35.5599 0.790588C35.0517 1.32706 34.7693 1.97647 34.7693 2.73882C34.7693 3.50118 35.0234 4.15059 35.5599 4.68706C36.0681 5.19529 36.774 5.44941 37.6211 5.44941C38.4681 5.44941 39.174 5.19529 39.7105 4.68706C40.247 4.17882 40.5011 3.52941 40.5011 2.73882C40.5011 1.94824 40.247 1.29882 39.7105 0.790588ZM34.374 23.6047H40.9811C40.5011 21.7412 40.2752 19.3129 40.2752 16.2918V12.4235C40.2752 9.76941 40.3317 8.10353 40.4728 7.45412C39.767 7.79294 38.8634 7.96235 37.734 7.96235C36.6046 7.96235 35.6728 7.79294 34.9105 7.45412C35.0517 8.13177 35.1081 9.79765 35.1081 12.4235V16.2918C35.1081 19.1718 34.8823 21.6 34.4023 23.6047" fill="#111111"/>
<path d="M12.1813 18.0141C12.1813 19.3694 11.5884 24 5.37661 24C-0.835157 24 1.3672 22.9553 1.00014 22.927L1.62131 18.0423C1.73425 18.2118 2.69425 19.4541 4.78367 19.4541C6.87308 19.4541 6.95778 18.9176 6.95778 17.4212C6.95778 15.9247 5.63072 15.4729 5.63072 13.6659C5.63072 11.8588 6.95778 11.04 6.95778 9.62823C6.95778 8.21647 5.63072 7.59529 5.63072 5.59059C5.63072 3.58588 6.95778 2.99294 6.95778 1.75059C6.95778 0.508235 6.47778 0 6.47778 0H11.7295C11.7295 0 12.1531 0.564706 12.1531 1.58118C12.1531 3.07765 10.826 4.20706 10.826 5.50588C10.826 6.8047 12.1531 7.73647 12.1531 9.43058C12.1531 11.1247 10.8543 12.4235 10.8543 13.6941C10.8543 14.9647 12.2095 16.0094 12.2095 18.0141" fill="#111111"/>
<path d="M31.24 13.835C31.24 11.4068 31.4659 9.2609 31.9459 7.42561H25.3388C25.8188 8.86561 26.0447 11.068 26.0447 14.0044V16.0938C26.0447 17.2233 25.7906 18.155 25.2259 18.8891C24.6894 19.6233 23.9835 19.9903 23.1647 19.9903C22.3459 19.9903 21.7247 19.6515 21.2729 19.0021C20.8212 18.3527 20.6235 17.4209 20.6235 16.2633V14.0044C20.6235 11.548 20.8494 9.34561 21.3294 7.36914H14.7788C15.2306 9.23267 15.4565 11.5762 15.4565 14.3715V17.1103C15.4565 19.3409 15.9365 21.035 16.8682 22.1927C17.8 23.3221 19.1553 23.915 20.9059 23.915C23.3906 23.915 25 22.5315 25.7906 19.7362H26.0729V20.0185C26.0729 21.3738 25.847 22.5315 25.367 23.5197H31.9741C31.4941 21.6562 31.2682 19.3974 31.2682 16.7433V13.7786L31.24 13.835Z" fill="#111111"/>
<path d="M51.7955 20.0186C50.4966 20.0186 49.4802 19.6233 48.7743 18.8327C48.0402 18.0421 47.7013 16.9409 47.7013 15.5292C47.7013 14.1174 48.0402 13.0162 48.7178 12.2256C49.3955 11.4351 50.3555 11.0398 51.5696 11.0398C52.7837 11.0398 54.0825 11.4068 54.986 12.1692L55.1555 7.90565C54.6755 7.67977 53.9978 7.48212 53.1225 7.31271C52.2472 7.1433 51.4849 7.05859 50.8072 7.05859C48.1813 7.05859 46.1766 7.82095 44.7931 9.37389C43.4096 10.9268 42.7319 12.9598 42.7319 15.5292C42.7319 18.0986 43.4096 20.1598 44.7649 21.7127C46.1202 23.2374 48.1249 23.9998 50.779 23.9998C53.4331 23.9998 54.3649 23.7174 55.5508 23.1245V18.8045C54.506 19.6233 53.2355 20.0186 51.7672 20.0186" fill="#111111"/>
<path d="M62.3835 11.6338C62.8635 11.0126 63.4564 10.6738 64.1058 10.6738C65.6023 10.6738 66.3646 11.5491 66.3646 13.2997C66.3646 15.0502 66.167 14.5985 65.7435 15.0785C65.3199 15.5585 64.8117 15.7844 64.2188 15.7844C63.0046 15.7844 62.1011 15.3044 61.5364 14.3444C61.6211 13.1867 61.9035 12.2832 62.3835 11.6338ZM66.1388 20.2173C64.8682 20.2173 63.7952 19.8502 62.8917 19.0879C61.9882 18.3255 61.5082 17.3655 61.4235 16.2079L61.6211 16.1232C62.807 17.1397 64.3035 17.6479 66.1388 17.6479C67.9741 17.6479 68.8211 17.2244 69.7246 16.3491C70.6282 15.4738 71.0799 14.3161 71.0799 12.9044C71.0799 11.4926 70.5435 9.62907 69.4423 8.6126C68.3411 7.59613 66.647 7.08789 64.3599 7.08789C62.0729 7.08789 60.1811 7.85024 58.8258 9.37495C57.4705 10.8997 56.7646 12.9326 56.7646 15.4173C56.7646 17.902 57.4988 20.1891 58.9952 21.7138C60.4917 23.2385 62.4964 24.0008 64.9811 24.0008C67.4658 24.0008 69.4141 23.5208 70.7129 22.5891L70.5152 18.4385C69.527 19.6244 68.0588 20.2173 66.1105 20.2173" fill="#111111"/>
</g>
<defs>
<clipPath id="clip0_782_283">
<rect width="72" height="24" fill="white"/>
</clipPath>
</defs>
</svg>
