<svg width="100%" height="100%" viewBox="0 0 24 24" fill="none" xmlns="http://www.w3.org/2000/svg">
<path d="M20.0857 9.09789C20.2943 8.89121 20.408 8.62817 20.408 8.31815C20.408 7.69811 19.9151 7.2002 19.2895 7.2002C18.9767 7.2002 18.6923 7.33172 18.4743 7.54779L11.9904 14.124L5.52557 7.54779C5.30755 7.33172 5.01369 7.2002 4.71035 7.2002C4.08472 7.2002 3.5918 7.69811 3.5918 8.31815C3.5918 8.62817 3.70555 8.89122 3.91409 9.0979L11.1183 16.4069C11.3648 16.6699 11.6681 16.792 11.9999 16.8014C12.3317 16.8014 12.6161 16.6699 12.872 16.4069L20.0857 9.09789Z" fill="currentColor"/>
</svg>
