<svg width="100%" height="100%" viewBox="0 0 8 14" fill="none" xmlns="http://www.w3.org/2000/svg">
<g clip-path="url(#clip0_608_3706)">
    <path d="M7.53211 10.4364C7.53211 11.2108 7.19329 13.8569 3.64371 13.8569C0.0941263 13.8569 1.35261 13.2599 1.14287 13.2437L1.49782 10.4525C1.56236 10.5493 2.11093 11.2592 3.30488 11.2592C4.49883 11.2592 4.54724 10.9527 4.54724 10.0975C4.54724 9.2424 3.78892 8.98425 3.78892 7.95165C3.78892 6.91905 4.54724 6.45115 4.54724 5.64442C4.54724 4.8377 3.78892 4.48274 3.78892 3.3372C3.78892 2.19165 4.54724 1.85283 4.54724 1.14291C4.54724 0.432998 4.27295 0.142578 4.27295 0.142578H7.27396C7.27396 0.142578 7.51597 0.465267 7.51597 1.04611C7.51597 1.90123 6.75766 2.54661 6.75766 3.28879C6.75766 4.03098 7.51597 4.56342 7.51597 5.53148C7.51597 6.49955 6.77379 7.24173 6.77379 7.96778C6.77379 8.69383 7.54824 9.29081 7.54824 10.4364" fill="currentColor"/>
</g>
<defs>
    <clipPath id="clip0_608_3706">
        <rect width="6.85714" height="13.7143" fill="currentColor" transform="translate(0.571289 0.142578)"/>
    </clipPath>
</defs>
</svg>
