<svg width="100%" height="100%" viewBox="0 0 49 48" fill="none" xmlns="http://www.w3.org/2000/svg">
<path fill-rule="evenodd" clip-rule="evenodd" d="M17.1525 18.27C17.1525 18.27 16.2926 18.27 16.1571 18.0815C16.0217 17.8931 15.865 17.5207 15.8758 16.9728C15.8867 16.4251 15.9803 16.3691 16.2008 15.881C16.4215 15.3928 16.4993 15.2073 16.8977 14.7112C17.296 14.2151 17.4514 14.0467 18.0658 13.5575C18.6808 13.0685 18.711 12.9881 19.411 12.7115C20.1111 12.435 20.461 12.299 21.5213 12.1925C22.5816 12.0864 22.3598 12.1173 23.1653 12.3352C23.9708 12.5531 24.1106 12.5565 24.9559 13.122C25.8011 13.6873 26.5303 14.5863 26.5303 14.5863L27.4341 12.8544L28.7965 11.0675L30.8974 8.89589L31.7096 8.87695L31.9706 9.75633L30.9062 10.7576L29.2513 12.8707L28.0157 15.2302C28.0157 15.2302 29.1341 15.1443 30.2291 15.3403C31.3241 15.5362 31.2167 15.4006 32.0719 15.956C32.9269 16.5114 33.2953 16.5875 34.072 17.8363C34.8484 19.085 34.8373 19.184 34.9958 20.6583C35.1542 22.1326 35.1071 22.2731 34.6618 23.3274C34.2163 24.3817 33.2837 24.7102 33.2837 24.7102L32.1508 23.9865C32.1508 23.9865 32.1218 24.7059 31.9313 25.3275C31.7406 25.9488 31.5011 26.688 30.9446 27.921C30.3881 29.154 30.2196 29.562 29.3608 31.0231C28.5021 32.4845 28.5109 32.4249 27.5681 33.6663C26.6254 34.908 26.5331 35.0253 25.4192 36.2145C24.3051 37.4034 24.4052 37.5532 23.2236 38.3036C22.0418 39.0538 20.4111 39.3941 20.4111 39.3941C20.4111 39.3941 19.0543 39.3736 17.9102 38.6445C16.7661 37.9155 16.2926 36.7693 16.2926 36.7693C16.2926 36.7693 15.7352 35.4018 15.375 33.9268C15.015 32.4521 15.0501 32.601 14.9408 31.2324C14.8313 29.864 14.8564 29.6238 14.9033 28.0243C14.9503 26.4245 14.9055 26.4196 15.1268 24.885C15.348 23.3503 15.3544 23.0336 15.8612 21.3791C16.3678 19.7244 17.1525 18.27 17.1525 18.27ZM18.4195 18.0581C18.4195 18.0581 17.4855 19.2811 16.8274 21.1305C16.1693 22.9796 15.9152 25.0948 15.9152 25.0948C15.9152 25.0948 15.717 26.5222 15.6943 28.2496C15.6715 29.9773 15.6131 29.9797 15.8282 31.71C16.0433 33.4402 16.231 34.0704 16.5463 35.106C16.8619 36.1415 17.4445 37.0156 17.4445 37.0156C17.4445 37.0156 18.099 38.0175 18.9838 38.3891C19.8688 38.7605 20.2382 38.691 20.9123 38.4716C21.5861 38.2522 22.9425 37.4656 24.0898 36.5242C25.2373 35.583 26.1606 34.1655 26.1606 34.1655C26.1606 34.1655 27.6394 32.2228 28.5338 30.7685C29.4281 29.3143 29.5825 28.9066 30.1532 27.6742C30.7238 26.4418 30.9491 26.0178 31.1593 25.0983C31.3693 24.1788 31.3693 23.0396 31.3693 23.0396L29.6831 21.1475L28.1366 22.8735C28.1366 22.8735 26.9535 23.7594 26.0254 23.9711C25.0973 24.1828 24.916 24.0868 24.1016 23.7937C23.2873 23.5006 23.1484 23.4346 22.5728 22.7287C21.997 22.0228 21.7236 20.8781 21.7236 20.8781C21.7236 20.8781 21.5891 18.8533 21.5779 18.4106C21.5666 17.9681 21.6383 17.5261 21.6383 17.5261L18.4195 18.0581Z" fill="currentColor"/>
</svg>
