<svg width="100%" height="100%" viewBox="0 0 49 48" fill="none" xmlns="http://www.w3.org/2000/svg">

<path d="M48.4789 25.1537V20.7542C48.4789 17.0312 44.7559 15.0017 41.7109 15.0017C39.5917 15.1672 37.5784 15.9959 35.9569 17.3702C35.2583 16.6335 34.4193 16.0442 33.4892 15.6371C32.5592 15.2301 31.557 15.0135 30.5419 15.0002C28.4018 15.0732 26.3597 15.9145 24.7894 17.3702C24.2172 16.5734 23.4499 15.937 22.561 15.522C21.6722 15.107 20.6916 14.9273 19.7134 15.0002C18.7032 14.9221 17.692 15.1387 16.8025 15.6238C15.9129 16.1089 15.1832 16.8417 14.7019 17.7332L10.2379 27.8612L5.27886 16.5002C5.01398 15.8944 4.52032 15.4178 3.90551 15.1745C3.2907 14.9311 2.60461 14.9407 1.99686 15.2012C1.68892 15.3328 1.41051 15.5249 1.17808 15.766C0.945654 16.0071 0.763934 16.2924 0.643667 16.6049C0.523399 16.9175 0.467025 17.251 0.477878 17.5857C0.488732 17.9204 0.566593 18.2496 0.706856 18.5537L6.85236 31.9217C6.85236 31.9217 7.86786 34.2917 9.89736 34.2917C10.5206 34.3841 11.1568 34.2684 11.7076 33.9625C12.2584 33.6566 12.6929 33.1776 12.9439 32.5997C13.4119 31.8947 16.9654 24.4247 19.1059 19.8947C19.1889 19.72 19.3289 19.5788 19.5028 19.4942C19.6767 19.4096 19.8743 19.3868 20.0629 19.4294C20.2516 19.4719 20.4202 19.5775 20.5409 19.7285C20.6617 19.8796 20.7274 20.0673 20.7274 20.2607V31.4912C20.7183 32.19 20.9737 32.8664 21.4425 33.3846C21.9113 33.9029 22.5587 34.2248 23.2549 34.2857C23.6248 34.3103 23.9958 34.2588 24.3449 34.1342C24.6941 34.0096 25.0139 33.8146 25.2846 33.5613C25.5553 33.308 25.7711 33.0019 25.9187 32.6618C26.0662 32.3217 26.1424 31.9549 26.1424 31.5842V22.2767C26.1595 21.5252 26.4701 20.8103 27.0076 20.285C27.5451 19.7596 28.267 19.4654 29.0186 19.4654C29.7703 19.4654 30.4921 19.7596 31.0296 20.285C31.5671 20.8103 31.8777 21.5252 31.8949 22.2767V31.5842C31.8949 32.3023 32.1801 32.9909 32.6879 33.4987C33.1956 34.0065 33.8843 34.2917 34.6024 34.2917C35.3204 34.2917 36.0091 34.0065 36.5168 33.4987C37.0246 32.9909 37.3099 32.3023 37.3099 31.5842V22.2767C37.3099 21.5137 37.613 20.7819 38.1525 20.2424C38.692 19.7028 39.4238 19.3997 40.1869 19.3997C40.9499 19.3997 41.6817 19.7028 42.2212 20.2424C42.7607 20.7819 43.0639 21.5137 43.0639 22.2767V31.5842C43.0639 32.3023 43.3491 32.9909 43.8569 33.4987C44.3646 34.0065 45.0533 34.2917 45.7714 34.2917C46.4894 34.2917 47.1781 34.0065 47.6858 33.4987C48.1936 32.9909 48.4789 32.3023 48.4789 31.5842V25.1537Z" fill="currentColor"/>
<defs>
<clipPath id="clip0_608_3879">
<rect width="48" height="48" fill="none" transform="translate(0.480469)"/>
</clipPath>
</defs>
</svg>
