<svg width="100%" height="100%" viewBox="0 0 16 16" fill="none" xmlns="http://www.w3.org/2000/svg">
<path d="M6.06469 2.6095C5.92691 2.47047 5.75154 2.39464 5.54486 2.39464C5.1315 2.39464 4.79956 2.72325 4.79956 3.14034C4.79956 3.34889 4.88724 3.53847 5.03129 3.68382L9.41542 8.00637L5.03129 12.3163C4.88724 12.4616 4.79956 12.6575 4.79956 12.8598C4.79956 13.2769 5.1315 13.6055 5.54486 13.6055C5.75154 13.6055 5.92691 13.5296 6.06469 13.3906L10.9373 8.58777C11.1127 8.42346 11.1941 8.22124 11.2004 8.00005C11.2004 7.77887 11.1127 7.58928 10.9373 7.41866L6.06469 2.6095Z" fill="currentColor"/>
</svg>
