<svg width="100%" height="100%" viewBox="0 0 48 48" fill="none" xmlns="http://www.w3.org/2000/svg">
<path fill-rule="evenodd" clip-rule="evenodd" d="M6.01084 8.30392L6.54391 7.38142L7.40078 6.76605L8.16016 6.41992L40.9981 6.50692L41.8933 7.00192L42.8454 7.82055L42.9866 40.7073L42.3903 41.3547L41.1984 41.9069L7.89072 42.0464L6.73703 41.4888L5.91016 40.4891L6.01084 8.30392ZM7.78272 35.0909L41.1658 35.0684L41.2605 8.37161L7.90234 8.26961L7.78272 35.0909ZM14.778 39.8669L19.2125 39.9063L19.2332 39.2748L15.5377 39.2411L15.5745 38.5533L19.2033 38.5683L19.2328 38.0922L15.5996 38.0622C15.5996 38.0622 15.5908 37.304 15.6003 37.2129C15.6099 37.1217 19.2367 37.304 19.2367 37.304L19.2273 36.8277L14.8151 36.8454L14.778 39.8669ZM35.5905 39.6794L40.025 39.7188L40.0457 39.0873L36.3502 39.0536L36.387 38.3658L40.0158 38.3808L40.0453 37.9047L36.4121 37.8747C36.4121 37.8747 36.4033 37.1165 36.4128 37.0254C36.4224 36.9342 40.0492 37.1165 40.0492 37.1165L40.0398 36.6402L35.6276 36.6579L35.5905 39.6794ZM20.6508 36.8607L20.6278 39.7981L26.4602 39.8253L26.4643 36.8729L25.3667 36.8579L25.3983 39.0794L23.9357 39.1066L23.906 36.8791L22.9123 36.8452L22.934 39.1346L21.5085 39.0905L21.4685 36.8517L20.651 36.8607H20.6508ZM27.8927 36.8439L27.8229 39.8786L28.6397 39.8656C28.6397 39.8656 28.6115 36.8956 28.5877 36.8482C28.5639 36.8006 27.8927 36.8441 27.8927 36.8441V36.8439ZM9.02509 36.8712L8.99941 39.8812L9.84203 39.8617L9.84034 38.6795L11.685 38.7033L12.4061 39.7145L13.578 39.7235L12.6422 38.7183L13.439 38.1682L13.4017 36.7565L9.02509 36.8712ZM30.0251 36.8712L29.9994 39.8812L30.842 39.8617L30.8403 38.6795L32.685 38.7033L33.4061 39.7145L34.578 39.7235L33.6422 38.7183L34.439 38.1682L34.4017 36.7565L30.0251 36.8712Z" fill="currentColor"/>
<path fill-rule="evenodd" clip-rule="evenodd" d="M9.88788 27.5564L14.0393 27.4973L16.8196 26.9586L19.4476 25.9011L20.5321 25.2668L21.8155 26.1184L23.377 26.8801L21.2397 28.1751L19.1637 29.2225L17.3374 29.8699L15.181 30.1919L9.89219 30.2894L9.88788 27.5564ZM9.81644 23.0357L12.1555 23.0535L13.5267 22.7269L14.8977 22.1309L16.6208 22.9836L18.3919 23.8405L16.2552 25.0399L14.0251 25.554L12.1602 25.8205L9.71875 25.858L9.81644 23.0357Z" fill="currentColor"/>
<path fill-rule="evenodd" clip-rule="evenodd" d="M9.85938 20.0793L12.5826 20.2308L15.1345 21.1068L17.6862 22.2686L19.9137 23.3321L22.1987 24.8938L24.3888 26.3409L26.407 27.6722L29.0813 28.8566L31.7854 29.9803L33.2136 30.2278L39.2134 30.2265L39.2209 27.3812L34.4028 27.533L31.4624 26.6681L28.33 25.3035L25.8706 23.5743L23.2407 21.8257L20.545 20.3557L17.9714 18.9333L15.2086 17.6842L13.0324 17.1836L9.90025 17.2187L9.85938 20.0793Z" fill="currentColor"/>
<path fill-rule="evenodd" clip-rule="evenodd" d="M9.90234 15.6453L13.9353 15.6548L16.1442 16.0928L18.4865 17.0641L20.6384 18.1684L23.3806 19.8063L25.5895 21.3678L28.465 23.1387L30.9978 24.4146L33.6067 25.4429L35.5492 25.8046L39.4417 25.8226L39.44 22.9975L36.1154 23.1308L33.0215 22.0737L30.0618 20.3819L26.7187 18.4594L23.645 16.441L20.7625 14.7683L18.0404 13.5096L16.2162 13.0098L15.3607 12.8359L9.92034 12.9558L9.90234 15.6453Z" fill="currentColor"/>
<path fill-rule="evenodd" clip-rule="evenodd" d="M39.4507 19.9343L39.4944 16.9066L36.0739 16.9426L34.4786 17.2473L32.3831 17.8758L30.7491 18.6757L30.1339 19.0184L31.8454 19.8719L33.5591 20.8051L35.4442 20.2666L36.8916 19.9975L39.4507 19.9343ZM39.2334 15.5465L39.3238 12.5742L35.5948 12.5924L32.9237 12.6102L30.4629 13.2768L27.8685 14.4764L25.8697 15.9415L25.8844 16.318L27.1412 17.0607L28.5122 18.0128L30.3403 16.9748L32.4159 16.2635L35.0439 15.6852L39.2334 15.5465ZM10.0035 37.5014L9.98438 38.168L12.2237 38.1852L12.3189 37.4932L10.0035 37.5014ZM31.0035 37.5014L30.9844 38.168L33.2237 38.1852L33.3189 37.4932L31.0035 37.5014Z" fill="currentColor"/>
</svg>
