<svg width="100%" height="100%" viewBox="0 0 24 24" fill="none" xmlns="http://www.w3.org/2000/svg">
<path fill-rule="evenodd" clip-rule="evenodd" d="M2.66667 24H21.3333C22.8061 24 24 22.8061 24 21.3333V2.66667C24 1.19391 22.8061 0 21.3333 0H2.66667C1.19391 0 0 1.19391 0 2.66667V21.3333C0 22.8061 1.19391 24 2.66667 24Z" fill="currentColor"/>
<path fill-rule="evenodd" clip-rule="evenodd" d="M20.6663 20.6663H17.1049V14.6004C17.1049 12.9373 16.4729 12.0079 15.1566 12.0079C13.7245 12.0079 12.9764 12.975 12.9764 14.6004V20.6663H9.54412V9.11079H12.9764V10.6673C12.9764 10.6673 14.0084 8.75775 16.4605 8.75775C18.9116 8.75775 20.6663 10.2545 20.6663 13.3501V20.6663ZM5.44946 7.59768C4.28036 7.59768 3.33301 6.64289 3.33301 5.46534C3.33301 4.28779 4.28036 3.33301 5.44946 3.33301C6.61855 3.33301 7.56534 4.28779 7.56534 5.46534C7.56534 6.64289 6.61855 7.59768 5.44946 7.59768ZM3.67719 20.6663H7.25614V9.11079H3.67719V20.6663Z" fill="white"/>
</svg>
