<svg width="100%" height="100%" viewBox="0 0 16 16" fill="none" xmlns="http://www.w3.org/2000/svg">
<path d="M9.93528 13.3906C10.0731 13.5296 10.2484 13.6055 10.4551 13.6055C10.8685 13.6055 11.2004 13.2769 11.2004 12.8598C11.2004 12.6512 11.1127 12.4616 10.9687 12.3163L6.58455 7.99373L10.9687 3.68382C11.1127 3.53847 11.2004 3.34257 11.2004 3.14034C11.2004 2.72325 10.8685 2.39464 10.4551 2.39464C10.2484 2.39464 10.0731 2.47047 9.93528 2.6095L5.06263 7.41234C4.88727 7.57665 4.80585 7.77887 4.79959 8.00005C4.79959 8.22124 4.88727 8.41082 5.06263 8.58145L9.93528 13.3906Z" fill="currentColor"/>
</svg>
