<svg width="100%" height="100%" viewBox="0 0 49 48" fill="none" xmlns="http://www.w3.org/2000/svg">
<path fill-rule="evenodd" clip-rule="evenodd" d="M24.3175 3.00013C19.332 3.0008 14.5092 4.7752 10.7121 8.00592C6.91492 11.2366 4.39103 15.7129 3.59189 20.634C2.79275 25.5551 3.77049 30.6 6.35022 34.8663C8.92994 39.1326 12.9434 42.3419 17.6725 43.9201C18.7225 44.1151 19.1725 43.4701 19.1725 42.9151V39.3451C13.3375 40.6051 12.1075 36.5251 12.1075 36.5251C11.6972 35.2394 10.8336 34.1465 9.67753 33.4501C7.77253 32.1601 9.82753 32.1751 9.82753 32.1751C10.4929 32.2691 11.1281 32.5139 11.6844 32.8909C12.2407 33.2679 12.7036 33.767 13.0375 34.3501C13.6185 35.3922 14.5896 36.1609 15.7373 36.4872C16.8849 36.8135 18.1152 36.6707 19.1575 36.0901C19.2422 35.0258 19.7114 34.0288 20.4775 33.2851C15.8275 32.7451 10.9225 30.9451 10.9225 22.9051C10.8885 20.817 11.6624 18.7964 13.0825 17.2651C12.4397 15.4564 12.5149 13.4701 13.2925 11.7151C13.2925 11.7151 15.0475 11.1451 19.0675 13.8601C22.5047 12.9225 26.1303 12.9225 29.5675 13.8601C33.5725 11.1451 35.3275 11.7151 35.3275 11.7151C36.1052 13.4701 36.1803 15.4564 35.5375 17.2651C36.9577 18.7964 37.7315 20.817 37.6975 22.9051C37.6975 30.9751 32.7925 32.7451 28.1125 33.2701C28.6139 33.7783 29.0005 34.388 29.2463 35.0581C29.4921 35.7283 29.5914 36.4433 29.5375 37.1551V42.9151C29.5375 43.6051 29.9125 44.1301 31.0375 43.9201C35.7729 42.3399 39.7905 39.1244 42.3698 34.8503C44.9491 30.5762 45.9215 25.523 45.1125 20.5969C44.3035 15.6708 41.7661 11.194 37.9553 7.96928C34.1445 4.74457 29.3096 2.98288 24.3175 3.00013Z" fill="currentColor"/>
</svg>
